User Type,Username,Date,Text
[V],HolyRoses,2011-03-10T16:37Z,sweet.  damn forgot about this film even.  i'll assist u.
[V],BOZX,2011-03-10T16:47Z,tnx for ur assistance... :-P
,yopepoy,2011-03-10T16:53Z,here we go again. another anticipated brrip. thanks!
[V],BOZX,2011-03-10T17:01Z,.
[V],BOZX,2011-03-10T17:22Z,its BluRay rip not BRRip
[V],froggie100,2011-03-10T19:04Z,thnxs dude timpe and vision nearly done thier brrips now :)
,kimiani,2011-03-10T19:33Z,Thanks ........Amazing film !!!!!
,cerkez,2011-03-10T20:29Z,"thanks. With 20 mbit speed, I'll be supporting presentations."
,kurik,2011-03-10T21:36Z,"1.78:1 aspect ratio? It's supposed to be 2.35:1, how come it's cropped? Ripped from the 3D blu-ray?"
,yopepoy,2011-03-10T23:24Z,hahaha i mean bdrip. sorry
,hdpagol,2011-03-11T07:41Z,Colours look a bit washed out....BTW Thanks yaar BOZX
,ultimagic,2011-03-11T09:49Z,"hey dude, is it like the avatar which is 2.35:1 in theater and 16:9 in Blu Ray?"
,kurik,2011-03-11T12:36Z,"@ultimagic,
I believe avatar was actually shot in 1.78:1 and presented that way in imax theatres. It was cropped/matted for non-imax theatres. So no, that's not the case with this movie."
,kurik,2011-03-11T14:53Z,"Hmm, I just compared the trailer and this release and it actually isn't cropped. The trailer has less height. I'm guessing this must be from a 3D blu-ray since they sometimes have a different aspect ratio"
,TheyCallMeSkeelZ,2011-03-11T18:44Z,"What can I say? The seeding is freaking awesome! 

I downloaded the movie in r5, but the sound was meh, so I kept waiting. Thanks a lot! 

Picture; 

http://img854.imageshack.us/img854/6229/lul.png"
,ProtoX4,2011-03-14T04:34Z,How's the audio? Is it surround or just stereo?
,hdpagol,2011-03-14T07:45Z,"The.Chronicles.of.Narnia.The.Voyage.of.the.Dawn.Treader.2010.Bluray.720p.DTS.x264-CHD.mkv
      Format : Matroska
      File size : 5.98 GiB
      Duration : 1h 52mn
      Overall bit rate : 7 593 Kbps
      Encoded date : UTC 2011-02-22 14:52:45

   Video #1
      ID : 1
      Format : AVC
      Format/Info : Advanced Video Codec
      Format profile : High@L4.1
      Format settings, CABAC : Yes
      Format settings, ReFrames : 9 frames
      Muxing mode : Container profile=Unknown@4.1
      Codec ID : V_MPEG4/ISO/AVC
      Duration : 1h 52mn
      Bit rate : 5 932 Kbps
      Nominal bit rate : 6 082 Kbps
      Width : 1 280 pixels
      Height : 720 pixels
      Display aspect ratio : 16:9
      Frame rate : 23.976 fps
      Resolution : 24 bits
      Colorimetry : 4:2:0
      Scan type : Progressive
      Bits/(Pixel*Frame) : 0.268
      Stream size : 4.66 GiB (78%)


   Audio #2
      ID : 2
      Format : DTS
      Format/Info : Digital Theater Systems
      Codec ID : A_DTS
      Duration : 1h 52mn
      Bit rate mode : Constant
      Bit rate : 1 510 Kbps
      Channel(s) : 6 channels
      Channel positions : Front: L C R, Surround: L R, LFE
      Sampling rate : 48.0 KHz
      Resolution : 24 bits
      Stream size : 1.19 GiB (20%)
      Title : The.Chronicles.of.Narnia.The.Voyage.of.the.Dawn.Treader.2010.DTS-HD.MA Core_1509kbps
      Language : English"
,Dragonite_9,2011-04-02T23:57Z,"Can I have your attention for just a minute please! Please read this for all ours sake! 

SO WE WILL NOT LOSE ANY MORE OF OUR GREAT TORRENT UP LOADERS!! THANK YOU FOR YOUR ATTENTION!

-------------------------------------------------------------------------------------------

Kan jag få er uppmärksamhet tack! Var vänlig läs detta för allas våran skull, så vi inte 

blir av med fler och fler torrent uppladdare! TACK FÖR ER UPPMÄRKSAMHET!!


===========================================================================================


Ville tacka speciellt då jag vet hur de är när ingen tackar för ens uploads, som min 

torrent, har uploaded över 100gb, inga seeders kvar iaf, alla sticker direkt, och ingen 

säger tack..

Bara för att det är ""gratis"" så behöver man inte vara oförskämd, speciellt mot de som 

anstränger sig och ger er dessa saker gratis!
Så tack!
Hoppas detta kan få flera att förstå att ett litet tack kan göra så stor skillnad..

MVH.
// The Cureless Release Group

PS: Ni får väldigt gärna kopiera och skriva denna kommentar på alla torrenter ni laddar upp 

och ner, tack!


================================= «« ENGLISH »» ==================================


Wanted to say thanks, especially when I know how it feels when no one appreciates our 

uploads, as my torrent, has uploaded over 100GB, and no seeders left anyway, everyone left 

immediately after they finished, and no one even bothered to say Thank you .. (thinking of 

stop seeding it soon, if it will not change..)

Just because it is ""free""  you do not need to be rude and such douches, especially to 

those of us who give up our free time and put effort in to give you these things for free!
So thank you!

Hope this can get more people to understand that just a little THANK YOU! can make a big 

difference ..

Best regards!
 // The Cureless Release Group

PS: Feel free to copy and spread this to all torrents you download and upload, please!"
,john depp,2011-04-12T18:09Z,"Sick of reading this shit above.

Thanks Bozx.  I will enjoy this."
,AtotehZ,2011-06-07T16:34Z,"I'd wish torrenting would be optimized soon. I am only uploading with 500kb/sec out of 7.5Mb/sec, at the same time im only downloading with 600kb/sec... if people whould just download from me, I could download from others faster."
,xSerrote,2011-10-25T18:11Z,Gj man ill help 2...
